HIERARCHY
ROOT hip
{
  OFFSET 0 0 0
  CHANNELS 6 Xposition Yposition Zposition Zrotation Yrotation Xrotation
  JOINT abdomen
  {
    OFFSET 0 20.6881 -0.73152
    CHANNELS 3 Zrotation Xrotation Yrotation
    JOINT chest
    {
      OFFSET 0 11.7043 -0.48768
      CHANNELS 3 Zrotation Xrotation Yrotation
      JOINT neck
      {
        OFFSET 0 22.1894 -2.19456
        CHANNELS 3 Zrotation Xrotation Yrotation
        JOINT head
        {
          OFFSET -0.24384 7.07133 1.2192
          CHANNELS 3 Zrotation Xrotation Yrotation
          JOINT leftEye
          {
            OFFSET 4.14528 8.04674 8.04672
            CHANNELS 3 Zrotation Xrotation Yrotation
            End Site
            {
              OFFSET 1 0 0
            }
          }
          JOINT rightEye
          {
            OFFSET -3.6576 8.04674 8.04672
            CHANNELS 3 Zrotation Xrotation Yrotation
            End Site
            {
              OFFSET 1 0 0
            }
          }
        }
      }
      JOINT rCollar
      {
        OFFSET -2.68224 19.2634 -4.8768
        CHANNELS 3 Zrotation Xrotation Yrotation
        JOINT rShldr
        {
          OFFSET -8.77824 -1.95073 1.46304
          CHANNELS 3 Zrotation Xrotation Yrotation
          JOINT rForeArm
          {
            OFFSET -28.1742 -1.7115 0.48768
            CHANNELS 3 Zrotation Xrotation Yrotation
            JOINT rHand
            {
              OFFSET -22.5879 0.773209 7.07136
              CHANNELS 3 Zrotation Xrotation Yrotation
              JOINT rThumb1
              {
                OFFSET -1.2192 -0.487915 3.41376
                CHANNELS 3 Zrotation Xrotation Yrotation
                JOINT rThumb2
                {
                  OFFSET -3.37035 -0.52449 3.41376
                  CHANNELS 3 Zrotation Xrotation Yrotation
                  End Site
                  {
                    OFFSET -1.78271 -1.18214 1.43049
                  }
                }
              }
              JOINT rIndex1
              {
                OFFSET -7.75947 0.938293 5.60832
                CHANNELS 3 Zrotation Xrotation Yrotation
                JOINT rIndex2
                {
                  OFFSET -2.54057 -0.884171 1.56538
                  CHANNELS 3 Zrotation Xrotation Yrotation
                  End Site
                  {
                    OFFSET -1.62519 -0.234802 1.16502
                  }
                }
              }
              JOINT rMid1
              {
                OFFSET -8.24714 1.18213 3.41376
                CHANNELS 3 Zrotation Xrotation Yrotation
                JOINT rMid2
                {
                  OFFSET -3.10165 -0.590103 1.0647
                  CHANNELS 3 Zrotation Xrotation Yrotation
                  End Site
                  {
                    OFFSET -2.48547 -0.328903 0.83742
                  }
                }
              }
              JOINT rRing1
              {
                OFFSET -8.82822 0.546677 1.51678
                CHANNELS 3 Zrotation Xrotation Yrotation
                JOINT rRing2
                {
                  OFFSET -2.60934 -0.819778 -0.0198488
                  CHANNELS 3 Zrotation Xrotation Yrotation
                  End Site
                  {
                    OFFSET -2.33842 -0.294052 0.168128
                  }
                }
              }
              JOINT rPinky1
              {
                OFFSET -8.27202 -0.0477905 -0.4584
                CHANNELS 3 Zrotation Xrotation Yrotation
                JOINT rPinky2
                {
                  OFFSET -1.82734 -0.647385 -0.700984
                  CHANNELS 3 Zrotation Xrotation Yrotation
                  End Site
                  {
                    OFFSET -1.69225 -0.51767 -0.607171
                  }
                }
              }
            }
          }
        }
      }
      JOINT lCollar
      {
        OFFSET 2.68224 19.2634 -4.8768
        CHANNELS 3 Zrotation Xrotation Yrotation
        JOINT lShldr
        {
          OFFSET 8.77824 -1.95073 1.46304
          CHANNELS 3 Zrotation Xrotation Yrotation
          JOINT lForeArm
          {
            OFFSET 28.1742 -1.7115 0.48768
            CHANNELS 3 Zrotation Xrotation Yrotation
            JOINT lHand
            {
              OFFSET 22.5879 0.773209 7.07136
              CHANNELS 3 Zrotation Xrotation Yrotation
              JOINT lThumb1
              {
                OFFSET 1.2192 -0.487915 3.41376
                CHANNELS 3 Zrotation Xrotation Yrotation
                JOINT lThumb2
                {
                  OFFSET 3.37035 -0.52449 3.41376
                  CHANNELS 3 Zrotation Xrotation Yrotation
                  End Site
                  {
                    OFFSET 1.78271 -1.18214 1.43049
                  }
                }
              }
              JOINT lIndex1
              {
                OFFSET 7.75947 0.938293 5.60832
                CHANNELS 3 Zrotation Xrotation Yrotation
                JOINT lIndex2
                {
                  OFFSET 2.54057 -0.884171 1.56538
                  CHANNELS 3 Zrotation Xrotation Yrotation
                  End Site
                  {
                    OFFSET 1.62519 -0.234802 1.16502
                  }
                }
              }
              JOINT lMid1
              {
                OFFSET 8.24714 1.18213 3.41376
                CHANNELS 3 Zrotation Xrotation Yrotation
                JOINT lMid2
                {
                  OFFSET 3.10165 -0.590103 1.0647
                  CHANNELS 3 Zrotation Xrotation Yrotation
                  End Site
                  {
                    OFFSET 2.48547 -0.328903 0.83742
                  }
                }
              }
              JOINT lRing1
              {
                OFFSET 8.82822 0.546677 1.51678
                CHANNELS 3 Zrotation Xrotation Yrotation
                JOINT lRing2
                {
                  OFFSET 2.60934 -0.819778 -0.0198488
                  CHANNELS 3 Zrotation Xrotation Yrotation
                  End Site
                  {
                    OFFSET 2.33842 -0.294052 0.168128
                  }
                }
              }
              JOINT lPinky1
              {
                OFFSET 8.27202 -0.0477905 -0.4584
                CHANNELS 3 Zrotation Xrotation Yrotation
                JOINT lPinky2
                {
                  OFFSET 1.82734 -0.647385 -0.700984
                  CHANNELS 3 Zrotation Xrotation Yrotation
                  End Site
                  {
                    OFFSET 1.69225 -0.51767 -0.607171
                  }
                }
              }
            }
          }
        }
      }
    }
  }
  JOINT rButtock
  {
    OFFSET -8.77824 4.35084 1.2192
    CHANNELS 3 Zrotation Xrotation Yrotation
    JOINT rThigh
    {
      OFFSET 0 -1.70687 -2.19456
      CHANNELS 3 Zrotation Xrotation Yrotation
      JOINT rShin
      {
        OFFSET 0 -36.8199 0.73152
        CHANNELS 3 Zrotation Xrotation Yrotation
        JOINT rFoot
        {
          OFFSET 0.73152 -45.1104 -5.12064
          CHANNELS 3 Zrotation Xrotation Yrotation
          End Site
          {
            OFFSET -1.1221 -3.69964 12.103
          }
        }
      }
    }
  }
  JOINT lButtock
  {
    OFFSET 8.77824 4.35084 1.2192
    CHANNELS 3 Zrotation Xrotation Yrotation
    JOINT lThigh
    {
      OFFSET 0 -1.70687 -2.19456
      CHANNELS 3 Zrotation Xrotation Yrotation
      JOINT lShin
      {
        OFFSET 0 -36.8199 0.73152
        CHANNELS 3 Zrotation Xrotation Yrotation
        JOINT lFoot
        {
          OFFSET -0.73152 -45.1104 -5.12064
          CHANNELS 3 Zrotation Xrotation Yrotation
          End Site
          {
            OFFSET 1.1221 -3.69964 12.103
          }
        }
      }
    }
  }
}
MOTION
Frames:	8
Frame Time:	0.00833333
24.5889 81.0333 -8.53818 -0.0 0.0 -0.0 0.0 0.0 0.0 -0.0 -0.0 0.0 9.579663 3.263211 60.169506 -7.606876 6.687135 -59.997951 0.0 -0.0 -0.0 0.0 -0.0 -0.0 -9.651699 34.836178 11.199233 -167.65398 58.445358 178.601745 69.325423 70.507438 -85.558237 -157.127153 57.06017 132.681668 -171.706035 -9.388422 89.948992 124.416693 -58.699543 90.020833 -46.208543 39.652969 36.318179 0.045255 3.276239 -10.207409 0.541241 -1.589941 -0.294737 -44.619541 58.164401 35.492574 -0.021291 -1.725169 -0.542387 0.202048 -0.781329 0.224955 0.55107 1.455736 0.507892 0.869117 2.563434 0.691869 80.1661 68.371792 -83.260848 -16.636043 26.569078 -0.697254 -170.062669 -7.959591 -172.895207 25.498965 55.790154 -11.520513 0.543938 0.536215 -0.086055 104.171792 9.1561 -95.114355 0.327682 0.529888 -0.186114 10.068951 13.225352 -3.011244 36.036059 51.723116 -29.832321 2.585961 14.44077 0.134276 145.121957 1.974539 179.748654 27.756302 -74.97791 59.306076 43.363118 -47.546704 42.161842 153.182344 36.1508 150.245835 -180.0 75.749642 -0.0 -180.0 75.749642 -0.0 -5.253206 4.259844 -61.803787 46.924645 37.416912 30.00718 -180.0 75.749642 -0.0 -180.0 75.749642 -0.0 5.253206 4.259844 61.803787 -125.920229 23.253478 39.076223
22.7889 81.6239 -8.89455 -0.0 0.0 -0.0 0.0 0.0 0.0 0.0 0.0 -0.0 -1.239633 0.331232 -7.299189 1.271675 -0.170986 7.30467 0.0 -0.0 -0.0 0.0 -0.0 -0.0 -155.504155 -3.514523 161.838528 -148.865721 16.453231 159.949659 175.937228 -19.617114 142.556736 176.111991 0.105603 145.237119 -178.927535 -16.453687 89.421826 -29.014866 -33.724092 -0.94162 -132.81837 12.807409 111.109258 -136.535506 28.605009 116.814627 23.903801 -61.333833 1.399383 -168.78654 -14.904848 141.113909 -145.121957 1.974539 -179.748654 20.39321 -0.111503 -9.386725 -145.543006 13.244722 -142.14923 -135.220902 -12.414804 -134.014637 159.220516 -48.028485 -170.415257 -59.019124 -65.879433 -48.521321 179.925478 -7.158832 -178.405428 7.073747 21.936216 -0.611147 -4.53085 -4.514112 0.520964 2.299036 1.599142 1.135793 138.493513 4.896353 -114.8648 -176.674029 -62.769908 -110.017409 57.867671 59.218227 -50.52539 -8.244794 -20.638459 4.561897 145.121957 1.974539 179.748654 137.723002 -42.582274 170.239063 25.537984 -38.087442 24.598474 23.927856 -42.038888 23.203412 -180.0 75.749642 -0.0 -180.0 75.749642 -0.0 -4.911375 3.484732 -54.436469 120.900965 19.166799 -32.872537 -180.0 75.749642 -0.0 -180.0 75.749642 -0.0 5.604238 5.709179 74.804423 41.972451 -87.308649 -64.878489
21.1105 81.9516 -9.15109 -0.0 0.0 -0.0 0.0 0.0 0.0 -0.0 -0.0 0.0 9.579663 3.263211 60.169506 -7.606876 6.687135 -59.997951 0.0 -0.0 -0.0 0.0 -0.0 -0.0 -9.651699 34.836178 11.199233 -167.65398 58.445358 178.601745 175.903792 14.054668 179.819814 -12.658813 36.077593 2.850549 -2.608268 2.55464 0.457401 -151.953788 -61.685871 117.842735 129.2177 -75.529207 76.343847 124.095635 -59.580082 58.558059 -15.317654 32.8094 11.206912 2.652143 -6.200347 -2.51096 -114.669357 66.731663 135.092548 -80.64221 -71.204134 -100.62979 -152.503054 38.522968 -147.799022 2.722353 -2.824014 -3.921076 80.1661 68.371792 -83.260848 -16.636043 26.569078 -0.697254 -2.458963 41.468053 33.091297 -168.596648 -22.114095 -142.998061 172.745809 -10.423727 -89.92934 -152.354819 -41.921999 -99.622973 162.919155 -37.929343 -122.629395 -21.380488 3.831108 6.531267 164.099325 -17.547303 -144.578053 161.150962 -7.656064 -142.694424 145.119466 0.267753 179.212454 139.161583 -38.295293 172.062009 136.9593 -9.523921 134.262679 7.091715 -24.789602 11.57194 -180.0 75.749642 -0.0 -180.0 75.749642 -0.0 -4.911375 3.484732 -54.436469 120.900965 19.166799 -32.872537 -180.0 75.749642 -0.0 -180.0 75.749642 -0.0 5.604238 5.709179 74.804423 41.972451 -87.308649 -64.878489
19.8145 81.9782 -9.23265 -0.0 -0.0 -0.0 -0.0 0.0 -0.0 0.0 -0.0 -0.0 9.579663 3.263211 60.169506 -7.606876 6.687135 -59.997951 0.0 0.0 0.0 0.0 0.0 0.0 -155.504155 -3.514523 161.838528 -0.739359 44.07458 27.092042 -177.924925 61.352136 -179.389176 -5.207118 16.436648 0.18575 -161.434766 0.861283 89.125989 -126.319534 7.331045 60.332877 5.921393 -10.174578 -2.968574 8.408014 -9.377689 1.108256 -36.036059 51.723116 29.832321 -167.81997 -16.778355 146.888827 -145.119466 0.267753 -179.212454 21.881506 19.869899 -6.763001 25.916531 79.094076 10.831563 -7.491955 -16.825167 -10.071183 155.504155 -3.514523 -161.838528 -12.703764 17.303566 -18.211188 169.126798 1.574213 -175.997696 -4.474653 -13.80024 -1.017807 178.927535 -16.453687 -89.421826 -175.188645 -21.497608 -100.500624 46.208543 39.652969 -36.318179 67.420155 57.74042 -41.939517 -7.904304 -24.807577 3.013399 -0.297049 -0.310722 -1.352029 74.840941 72.961123 -92.827929 -10.827938 29.514625 12.424321 -12.252484 41.424931 -10.280249 -74.670179 84.317312 38.910743 -180.0 75.749642 -0.0 -180.0 75.749642 -0.0 3.093813 0.300867 27.366401 -177.517899 -38.148311 39.844119 -180.0 75.749642 -0.0 -180.0 75.749642 -0.0 2.74577 11.919568 137.880989 -125.013996 -18.562674 143.958933
19.14 81.7005 -8.91893 -0.0 0.0 -0.0 0.0 0.0 0.0 -0.0 -0.0 0.0 9.579663 3.263211 60.169506 -7.606876 6.687135 -59.997951 0.0 -0.0 -0.0 0.0 -0.0 -0.0 -9.651699 34.836178 11.199233 -167.65398 58.445358 178.601745 69.325423 70.507438 -85.558237 -157.127153 57.06017 132.681668 -171.706035 -9.388422 89.948992 124.416693 -58.699543 90.020833 -46.208543 39.652969 36.318179 -169.114563 -11.964756 120.383506 0.541241 -1.589941 -0.294737 -44.619541 58.164401 35.492574 -0.021291 -1.725169 -0.542387 -149.665365 60.618704 153.530192 0.55107 1.455736 0.507892 0.869117 2.563434 0.691869 80.1661 68.371792 -83.260848 -16.926686 14.149077 0.16198 -166.555282 -0.408336 -170.015649 55.272002 70.963507 -37.830895 -2.463212 -2.445814 0.326987 165.871158 -75.799562 -115.179431 90.225558 41.072425 -75.796697 -6.928777 0.04259 14.79637 160.09819 -4.901163 -142.968881 176.943032 -49.194077 -141.01404 0.014868 -1.323148 0.415899 8.968127 49.358809 -11.127104 148.069978 21.784714 144.327569 22.550056 -39.202867 26.354456 -180.0 75.749642 -0.0 -180.0 75.749642 -0.0 -5.253206 4.259844 -61.803787 46.924645 37.416912 30.00718 -180.0 75.749642 -0.0 -180.0 75.749642 -0.0 5.65445 6.518803 81.877826 -141.329165 30.503921 59.96646
17.7182 81.7579 -8.89515 -0.0 0.0 -0.0 0.0 0.0 0.0 0.0 0.0 -0.0 -1.239633 0.331232 -7.299189 1.271675 -0.170986 7.30467 0.0 -0.0 -0.0 0.0 -0.0 -0.0 -155.504155 -3.514523 161.838528 -148.865721 16.453231 159.949659 175.937228 -19.617114 142.556736 176.111991 0.105603 145.237119 -178.927535 -16.453687 89.421826 -29.014866 -33.724092 -0.94162 -132.81837 12.807409 111.109258 -136.535506 28.605009 116.814627 23.903801 -61.333833 1.399383 -168.78654 -14.904848 141.113909 -145.121957 1.974539 -179.748654 20.39321 -0.111503 -9.386725 -145.543006 13.244722 -142.14923 -135.220902 -12.414804 -134.014637 159.220516 -48.028485 -170.415257 -59.019124 -65.879433 -48.521321 -179.057717 -3.581045 -178.431729 8.341089 25.468796 -0.999354 -4.53085 -4.514112 0.520964 87.035504 24.385704 -78.584403 98.707864 38.541278 -83.307059 -93.816551 -76.23483 -43.397135 36.036059 51.723116 -29.832321 160.635595 8.60042 -144.049608 145.119209 0.226661 179.199545 -22.329333 31.338819 5.504791 145.543006 13.244722 142.14923 144.987182 11.476468 141.653815 -180.0 75.749642 -0.0 -180.0 75.749642 -0.0 -5.253206 4.259844 -61.803787 46.924645 37.416912 30.00718 -180.0 75.749642 -0.0 -180.0 75.749642 -0.0 5.65445 6.518803 81.877826 -141.329165 30.503921 59.96646
16.2689 81.8683 -8.70911 -0.0 0.0 -0.0 0.0 0.0 0.0 0.0 0.0 -0.0 -1.239633 0.331232 -7.299189 1.271675 -0.170986 7.30467 0.0 -0.0 -0.0 0.0 -0.0 -0.0 -155.504155 -3.514523 161.838528 -148.865721 16.453231 159.949659 175.821346 -19.915366 142.507172 176.206823 0.408679 145.247068 -5.433768 5.264911 1.077842 -142.156535 -47.970795 116.603979 -148.886119 -12.609784 120.244776 -2.049954 38.327995 1.638642 -151.476684 17.84174 137.538824 -85.025089 65.211089 79.784154 -145.119466 0.267753 -179.212454 -143.017645 -18.686131 -176.450054 -141.728438 1.976144 -138.711221 -145.496918 13.69612 -142.725252 159.220516 -48.028485 -170.415257 -59.019124 -65.879433 -48.521321 -90.175402 72.232755 107.565957 156.839567 57.329489 -132.450109 -4.53085 -4.514112 0.520964 -3.022412 -5.915606 5.70655 -10.746993 -19.048016 4.725035 2.444041 6.405168 -4.555003 -78.537123 -80.919176 -49.688177 168.582668 -17.65884 -140.820119 -0.004672 0.917785 -0.288305 86.805871 78.917224 -89.809086 -0.465225 1.226425 -0.428913 -63.590589 85.995402 27.729763 -180.0 75.749642 -0.0 -180.0 75.749642 -0.0 -5.253206 4.259844 -61.803787 46.924645 37.416912 30.00718 -180.0 75.749642 -0.0 -180.0 75.749642 -0.0 5.65445 6.518803 81.877826 -141.329165 30.503921 59.96646
14.742099999999999 82.0018 -8.43424 0.0 -0.0 -0.0 -0.0 0.0 -0.0 -0.0 0.0 0.0 -8.121061 9.226048 -74.697339 11.024599 5.414888 74.83074 0.0 0.0 0.0 0.0 0.0 0.0 -155.504155 -3.514523 161.838528 12.703764 17.303566 18.211188 -169.142485 1.640124 176.000349 4.452638 -13.735952 1.010354 -78.493201 38.702306 42.741368 27.470699 -28.402835 19.68027 -90.225558 41.072425 75.796697 10.7047 -10.105905 -15.738268 -153.32078 13.628946 138.862343 -175.859544 -49.229393 142.639259 -75.673382 -72.116249 -92.828895 -147.64531 15.067628 163.721417 -133.876602 -15.638763 -131.333304 -92.496014 -51.304536 -94.428541 80.1661 68.371792 -83.260848 -6.284056 -75.51946 14.784394 30.094758 59.650336 -11.859699 -50.633916 -66.205251 -37.162803 169.149493 -6.830231 -89.916211 127.790264 11.185363 -61.729462 129.577218 16.761325 -108.78574 159.871964 -25.928772 -125.304637 36.036059 51.723116 -29.832321 -1.887952 0.107364 2.597591 -0.000474 0.063839 -0.020056 -0.968457 -18.29784 2.173318 124.851156 -29.038378 122.621388 -12.269522 24.389533 -6.089458 -180.0 75.749642 -0.0 -180.0 73.473292 -180.0 -7.080248 -6.369655 -103.605104 -9.889682 -56.723085 -100.168333 -180.0 75.749642 -0.0 -180.0 73.473292 -180.0 4.605221 -3.322687 138.122583 106.338457 25.137394 -33.941753
